<svg xmlns="http://www.w3.org/2000/svg" xmlns:xlink="http://www.w3.org/1999/xlink" xmlns:svgjs="http://svgjs.com/svgjs" version="1.1" viewBox="0 0 810 810" fill="#ffffff" width="1000" height="1000"><rect width="810" height="810" fill="#ffffff" x="0" y="0"/><rect width="30" height="30" x="270" y="30" opacity="1" fill="#000000" transform="matrix(1,0,0,1,0,0)"/><rect width="30" height="30" x="450" y="30" opacity="1" fill="#000000" transform="matrix(1,0,0,1,0,0)"/><rect width="30" height="30" x="480" y="30" opacity="1" fill="#000000" transform="matrix(1,0,0,1,0,0)"/><rect width="30" height="30" x="510" y="30" opacity="1" fill="#000000" transform="matrix(1,0,0,1,0,0)"/><rect width="30" height="30" x="270" y="60" opacity="1" fill="#000000" transform="matrix(1,0,0,1,0,0)"/><rect width="30" height="30" x="360" y="60" opacity="1" fill="#000000" transform="matrix(1,0,0,1,0,0)"/><rect width="30" height="30" x="390" y="60" opacity="1" fill="#000000" transform="matrix(1,0,0,1,0,0)"/><rect width="30" height="30" x="420" y="60" opacity="1" fill="#000000" transform="matrix(1,0,0,1,0,0)"/><rect width="30" height="30" x="450" y="60" opacity="1" fill="#000000" transform="matrix(1,0,0,1,0,0)"/><rect width="30" height="30" x="270" y="90" opacity="1" fill="#000000" transform="matrix(1,0,0,1,0,0)"/><rect width="30" height="30" x="300" y="90" opacity="1" fill="#000000" transform="matrix(1,0,0,1,0,0)"/><rect width="30" height="30" x="390" y="90" opacity="1" fill="#000000" transform="matrix(1,0,0,1,0,0)"/><rect width="30" height="30" x="450" y="90" opacity="1" fill="#000000" transform="matrix(1,0,0,1,0,0)"/><rect width="30" height="30" x="270" y="120" opacity="1" fill="#000000" transform="matrix(1,0,0,1,0,0)"/><rect width="30" height="30" x="300" y="120" opacity="1" fill="#000000" transform="matrix(1,0,0,1,0,0)"/><rect width="30" height="30" x="330" y="120" opacity="1" fill="#000000" transform="matrix(1,0,0,1,0,0)"/><rect width="30" height="30" x="390" y="120" opacity="1" fill="#000000" transform="matrix(1,0,0,1,0,0)"/><rect width="30" height="30" x="420" y="120" opacity="1" fill="#000000" transform="matrix(1,0,0,1,0,0)"/><rect width="30" height="30" x="450" y="120" opacity="1" fill="#000000" transform="matrix(1,0,0,1,0,0)"/><rect width="30" height="30" x="510" y="120" opacity="1" fill="#000000" transform="matrix(1,0,0,1,0,0)"/><rect width="30" height="30" x="300" y="150" opacity="1" fill="#000000" transform="matrix(1,0,0,1,0,0)"/><rect width="30" height="30" x="330" y="150" opacity="1" fill="#000000" transform="matrix(1,0,0,1,0,0)"/><rect width="30" height="30" x="390" y="150" opacity="1" fill="#000000" transform="matrix(1,0,0,1,0,0)"/><rect width="30" height="30" x="450" y="150" opacity="1" fill="#000000" transform="matrix(1,0,0,1,0,0)"/><rect width="30" height="30" x="480" y="150" opacity="1" fill="#000000" transform="matrix(1,0,0,1,0,0)"/><rect width="30" height="30" x="300" y="180" opacity="1" fill="#000000" transform="matrix(1,0,0,1,0,0)"/><rect width="30" height="30" x="330" y="180" opacity="1" fill="#000000" transform="matrix(1,0,0,1,0,0)"/><rect width="30" height="30" x="510" y="180" opacity="1" fill="#000000" transform="matrix(1,0,0,1,0,0)"/><rect width="30" height="30" x="330" y="240" opacity="1" fill="#000000" transform="matrix(1,0,0,1,0,0)"/><rect width="30" height="30" x="360" y="240" opacity="1" fill="#000000" transform="matrix(1,0,0,1,0,0)"/><rect width="30" height="30" x="450" y="240" opacity="1" fill="#000000" transform="matrix(1,0,0,1,0,0)"/><rect width="30" height="30" x="510" y="240" opacity="1" fill="#000000" transform="matrix(1,0,0,1,0,0)"/><rect width="30" height="30" x="30" y="270" opacity="1" fill="#000000" transform="matrix(1,0,0,1,0,0)"/><rect width="30" height="30" x="60" y="270" opacity="1" fill="#000000" transform="matrix(1,0,0,1,0,0)"/><rect width="30" height="30" x="330" y="270" opacity="1" fill="#000000" transform="matrix(1,0,0,1,0,0)"/><rect width="30" height="30" x="390" y="270" opacity="1" fill="#000000" transform="matrix(1,0,0,1,0,0)"/><rect width="30" height="30" x="450" y="270" opacity="1" fill="#000000" transform="matrix(1,0,0,1,0,0)"/><rect width="30" height="30" x="510" y="270" opacity="1" fill="#000000" transform="matrix(1,0,0,1,0,0)"/><rect width="30" height="30" x="600" y="270" opacity="1" fill="#000000" transform="matrix(1,0,0,1,0,0)"/><rect width="30" height="30" x="660" y="270" opacity="1" fill="#000000" transform="matrix(1,0,0,1,0,0)"/><rect width="30" height="30" x="690" y="270" opacity="1" fill="#000000" transform="matrix(1,0,0,1,0,0)"/><rect width="30" height="30" x="720" y="270" opacity="1" fill="#000000" transform="matrix(1,0,0,1,0,0)"/><rect width="30" height="30" x="750" y="270" opacity="1" fill="#000000" transform="matrix(1,0,0,1,0,0)"/><rect width="30" height="30" x="30" y="300" opacity="1" fill="#000000" transform="matrix(1,0,0,1,0,0)"/><rect width="30" height="30" x="180" y="300" opacity="1" fill="#000000" transform="matrix(1,0,0,1,0,0)"/><rect width="30" height="30" x="240" y="300" opacity="1" fill="#000000" transform="matrix(1,0,0,1,0,0)"/><rect width="30" height="30" x="270" y="300" opacity="1" fill="#000000" transform="matrix(1,0,0,1,0,0)"/><rect width="30" height="30" x="450" y="300" opacity="1" fill="#000000" transform="matrix(1,0,0,1,0,0)"/><rect width="30" height="30" x="480" y="300" opacity="1" fill="#000000" transform="matrix(1,0,0,1,0,0)"/><rect width="30" height="30" x="510" y="300" opacity="1" fill="#000000" transform="matrix(1,0,0,1,0,0)"/><rect width="30" height="30" x="540" y="300" opacity="1" fill="#000000" transform="matrix(1,0,0,1,0,0)"/><rect width="30" height="30" x="630" y="300" opacity="1" fill="#000000" transform="matrix(1,0,0,1,0,0)"/><rect width="30" height="30" x="660" y="300" opacity="1" fill="#000000" transform="matrix(1,0,0,1,0,0)"/><rect width="30" height="30" x="720" y="300" opacity="1" fill="#000000" transform="matrix(1,0,0,1,0,0)"/><rect width="30" height="30" x="60" y="330" opacity="1" fill="#000000" transform="matrix(1,0,0,1,0,0)"/><rect width="30" height="30" x="300" y="330" opacity="1" fill="#000000" transform="matrix(1,0,0,1,0,0)"/><rect width="30" height="30" x="330" y="330" opacity="1" fill="#000000" transform="matrix(1,0,0,1,0,0)"/><rect width="30" height="30" x="420" y="330" opacity="1" fill="#000000" transform="matrix(1,0,0,1,0,0)"/><rect width="30" height="30" x="450" y="330" opacity="1" fill="#000000" transform="matrix(1,0,0,1,0,0)"/><rect width="30" height="30" x="480" y="330" opacity="1" fill="#000000" transform="matrix(1,0,0,1,0,0)"/><rect width="30" height="30" x="540" y="330" opacity="1" fill="#000000" transform="matrix(1,0,0,1,0,0)"/><rect width="30" height="30" x="600" y="330" opacity="1" fill="#000000" transform="matrix(1,0,0,1,0,0)"/><rect width="30" height="30" x="660" y="330" opacity="1" fill="#000000" transform="matrix(1,0,0,1,0,0)"/><rect width="30" height="30" x="690" y="330" opacity="1" fill="#000000" transform="matrix(1,0,0,1,0,0)"/><rect width="30" height="30" x="30" y="360" opacity="1" fill="#000000" transform="matrix(1,0,0,1,0,0)"/><rect width="30" height="30" x="60" y="360" opacity="1" fill="#000000" transform="matrix(1,0,0,1,0,0)"/><rect width="30" height="30" x="90" y="360" opacity="1" fill="#000000" transform="matrix(1,0,0,1,0,0)"/><rect width="30" height="30" x="120" y="360" opacity="1" fill="#000000" transform="matrix(1,0,0,1,0,0)"/><rect width="30" height="30" x="150" y="360" opacity="1" fill="#000000" transform="matrix(1,0,0,1,0,0)"/><rect width="30" height="30" x="180" y="360" opacity="1" fill="#000000" transform="matrix(1,0,0,1,0,0)"/><rect width="30" height="30" x="270" y="360" opacity="1" fill="#000000" transform="matrix(1,0,0,1,0,0)"/><rect width="30" height="30" x="300" y="360" opacity="1" fill="#000000" transform="matrix(1,0,0,1,0,0)"/><rect width="30" height="30" x="390" y="360" opacity="1" fill="#000000" transform="matrix(1,0,0,1,0,0)"/><rect width="30" height="30" x="450" y="360" opacity="1" fill="#000000" transform="matrix(1,0,0,1,0,0)"/><rect width="30" height="30" x="480" y="360" opacity="1" fill="#000000" transform="matrix(1,0,0,1,0,0)"/><rect width="30" height="30" x="540" y="360" opacity="1" fill="#000000" transform="matrix(1,0,0,1,0,0)"/><rect width="30" height="30" x="570" y="360" opacity="1" fill="#000000" transform="matrix(1,0,0,1,0,0)"/><rect width="30" height="30" x="690" y="360" opacity="1" fill="#000000" transform="matrix(1,0,0,1,0,0)"/><rect width="30" height="30" x="720" y="360" opacity="1" fill="#000000" transform="matrix(1,0,0,1,0,0)"/><rect width="30" height="30" x="150" y="390" opacity="1" fill="#000000" transform="matrix(1,0,0,1,0,0)"/><rect width="30" height="30" x="360" y="390" opacity="1" fill="#000000" transform="matrix(1,0,0,1,0,0)"/><rect width="30" height="30" x="390" y="390" opacity="1" fill="#000000" transform="matrix(1,0,0,1,0,0)"/><rect width="30" height="30" x="420" y="390" opacity="1" fill="#000000" transform="matrix(1,0,0,1,0,0)"/><rect width="30" height="30" x="570" y="390" opacity="1" fill="#000000" transform="matrix(1,0,0,1,0,0)"/><rect width="30" height="30" x="660" y="390" opacity="1" fill="#000000" transform="matrix(1,0,0,1,0,0)"/><rect width="30" height="30" x="690" y="390" opacity="1" fill="#000000" transform="matrix(1,0,0,1,0,0)"/><rect width="30" height="30" x="720" y="390" opacity="1" fill="#000000" transform="matrix(1,0,0,1,0,0)"/><rect width="30" height="30" x="750" y="390" opacity="1" fill="#000000" transform="matrix(1,0,0,1,0,0)"/><rect width="30" height="30" x="30" y="420" opacity="1" fill="#000000" transform="matrix(1,0,0,1,0,0)"/><rect width="30" height="30" x="120" y="420" opacity="1" fill="#000000" transform="matrix(1,0,0,1,0,0)"/><rect width="30" height="30" x="150" y="420" opacity="1" fill="#000000" transform="matrix(1,0,0,1,0,0)"/><rect width="30" height="30" x="180" y="420" opacity="1" fill="#000000" transform="matrix(1,0,0,1,0,0)"/><rect width="30" height="30" x="240" y="420" opacity="1" fill="#000000" transform="matrix(1,0,0,1,0,0)"/><rect width="30" height="30" x="330" y="420" opacity="1" fill="#000000" transform="matrix(1,0,0,1,0,0)"/><rect width="30" height="30" x="390" y="420" opacity="1" fill="#000000" transform="matrix(1,0,0,1,0,0)"/><rect width="30" height="30" x="420" y="420" opacity="1" fill="#000000" transform="matrix(1,0,0,1,0,0)"/><rect width="30" height="30" x="480" y="420" opacity="1" fill="#000000" transform="matrix(1,0,0,1,0,0)"/><rect width="30" height="30" x="510" y="420" opacity="1" fill="#000000" transform="matrix(1,0,0,1,0,0)"/><rect width="30" height="30" x="630" y="420" opacity="1" fill="#000000" transform="matrix(1,0,0,1,0,0)"/><rect width="30" height="30" x="720" y="420" opacity="1" fill="#000000" transform="matrix(1,0,0,1,0,0)"/><rect width="30" height="30" x="120" y="450" opacity="1" fill="#000000" transform="matrix(1,0,0,1,0,0)"/><rect width="30" height="30" x="150" y="450" opacity="1" fill="#000000" transform="matrix(1,0,0,1,0,0)"/><rect width="30" height="30" x="300" y="450" opacity="1" fill="#000000" transform="matrix(1,0,0,1,0,0)"/><rect width="30" height="30" x="360" y="450" opacity="1" fill="#000000" transform="matrix(1,0,0,1,0,0)"/><rect width="30" height="30" x="390" y="450" opacity="1" fill="#000000" transform="matrix(1,0,0,1,0,0)"/><rect width="30" height="30" x="480" y="450" opacity="1" fill="#000000" transform="matrix(1,0,0,1,0,0)"/><rect width="30" height="30" x="510" y="450" opacity="1" fill="#000000" transform="matrix(1,0,0,1,0,0)"/><rect width="30" height="30" x="570" y="450" opacity="1" fill="#000000" transform="matrix(1,0,0,1,0,0)"/><rect width="30" height="30" x="600" y="450" opacity="1" fill="#000000" transform="matrix(1,0,0,1,0,0)"/><rect width="30" height="30" x="630" y="450" opacity="1" fill="#000000" transform="matrix(1,0,0,1,0,0)"/><rect width="30" height="30" x="660" y="450" opacity="1" fill="#000000" transform="matrix(1,0,0,1,0,0)"/><rect width="30" height="30" x="690" y="450" opacity="1" fill="#000000" transform="matrix(1,0,0,1,0,0)"/><rect width="30" height="30" x="90" y="480" opacity="1" fill="#000000" transform="matrix(1,0,0,1,0,0)"/><rect width="30" height="30" x="150" y="480" opacity="1" fill="#000000" transform="matrix(1,0,0,1,0,0)"/><rect width="30" height="30" x="180" y="480" opacity="1" fill="#000000" transform="matrix(1,0,0,1,0,0)"/><rect width="30" height="30" x="240" y="480" opacity="1" fill="#000000" transform="matrix(1,0,0,1,0,0)"/><rect width="30" height="30" x="270" y="480" opacity="1" fill="#000000" transform="matrix(1,0,0,1,0,0)"/><rect width="30" height="30" x="300" y="480" opacity="1" fill="#000000" transform="matrix(1,0,0,1,0,0)"/><rect width="30" height="30" x="330" y="480" opacity="1" fill="#000000" transform="matrix(1,0,0,1,0,0)"/><rect width="30" height="30" x="390" y="480" opacity="1" fill="#000000" transform="matrix(1,0,0,1,0,0)"/><rect width="30" height="30" x="480" y="480" opacity="1" fill="#000000" transform="matrix(1,0,0,1,0,0)"/><rect width="30" height="30" x="600" y="480" opacity="1" fill="#000000" transform="matrix(1,0,0,1,0,0)"/><rect width="30" height="30" x="630" y="480" opacity="1" fill="#000000" transform="matrix(1,0,0,1,0,0)"/><rect width="30" height="30" x="690" y="480" opacity="1" fill="#000000" transform="matrix(1,0,0,1,0,0)"/><rect width="30" height="30" x="720" y="480" opacity="1" fill="#000000" transform="matrix(1,0,0,1,0,0)"/><rect width="30" height="30" x="30" y="510" opacity="1" fill="#000000" transform="matrix(1,0,0,1,0,0)"/><rect width="30" height="30" x="60" y="510" opacity="1" fill="#000000" transform="matrix(1,0,0,1,0,0)"/><rect width="30" height="30" x="90" y="510" opacity="1" fill="#000000" transform="matrix(1,0,0,1,0,0)"/><rect width="30" height="30" x="120" y="510" opacity="1" fill="#000000" transform="matrix(1,0,0,1,0,0)"/><rect width="30" height="30" x="150" y="510" opacity="1" fill="#000000" transform="matrix(1,0,0,1,0,0)"/><rect width="30" height="30" x="180" y="510" opacity="1" fill="#000000" transform="matrix(1,0,0,1,0,0)"/><rect width="30" height="30" x="270" y="510" opacity="1" fill="#000000" transform="matrix(1,0,0,1,0,0)"/><rect width="30" height="30" x="300" y="510" opacity="1" fill="#000000" transform="matrix(1,0,0,1,0,0)"/><rect width="30" height="30" x="330" y="510" opacity="1" fill="#000000" transform="matrix(1,0,0,1,0,0)"/><rect width="30" height="30" x="420" y="510" opacity="1" fill="#000000" transform="matrix(1,0,0,1,0,0)"/><rect width="30" height="30" x="660" y="510" opacity="1" fill="#000000" transform="matrix(1,0,0,1,0,0)"/><rect width="30" height="30" x="690" y="510" opacity="1" fill="#000000" transform="matrix(1,0,0,1,0,0)"/><rect width="30" height="30" x="270" y="540" opacity="1" fill="#000000" transform="matrix(1,0,0,1,0,0)"/><rect width="30" height="30" x="300" y="540" opacity="1" fill="#000000" transform="matrix(1,0,0,1,0,0)"/><rect width="30" height="30" x="360" y="540" opacity="1" fill="#000000" transform="matrix(1,0,0,1,0,0)"/><rect width="30" height="30" x="390" y="540" opacity="1" fill="#000000" transform="matrix(1,0,0,1,0,0)"/><rect width="30" height="30" x="450" y="540" opacity="1" fill="#000000" transform="matrix(1,0,0,1,0,0)"/><rect width="30" height="30" x="360" y="570" opacity="1" fill="#000000" transform="matrix(1,0,0,1,0,0)"/><rect width="30" height="30" x="390" y="570" opacity="1" fill="#000000" transform="matrix(1,0,0,1,0,0)"/><rect width="30" height="30" x="450" y="570" opacity="1" fill="#000000" transform="matrix(1,0,0,1,0,0)"/><rect width="30" height="30" x="270" y="600" opacity="1" fill="#000000" transform="matrix(1,0,0,1,0,0)"/><rect width="30" height="30" x="300" y="600" opacity="1" fill="#000000" transform="matrix(1,0,0,1,0,0)"/><rect width="30" height="30" x="390" y="600" opacity="1" fill="#000000" transform="matrix(1,0,0,1,0,0)"/><rect width="30" height="30" x="660" y="600" opacity="1" fill="#000000" transform="matrix(1,0,0,1,0,0)"/><rect width="30" height="30" x="690" y="600" opacity="1" fill="#000000" transform="matrix(1,0,0,1,0,0)"/><rect width="30" height="30" x="720" y="600" opacity="1" fill="#000000" transform="matrix(1,0,0,1,0,0)"/><rect width="30" height="30" x="750" y="600" opacity="1" fill="#000000" transform="matrix(1,0,0,1,0,0)"/><rect width="30" height="30" x="270" y="630" opacity="1" fill="#000000" transform="matrix(1,0,0,1,0,0)"/><rect width="30" height="30" x="300" y="630" opacity="1" fill="#000000" transform="matrix(1,0,0,1,0,0)"/><rect width="30" height="30" x="390" y="630" opacity="1" fill="#000000" transform="matrix(1,0,0,1,0,0)"/><rect width="30" height="30" x="420" y="630" opacity="1" fill="#000000" transform="matrix(1,0,0,1,0,0)"/><rect width="30" height="30" x="660" y="630" opacity="1" fill="#000000" transform="matrix(1,0,0,1,0,0)"/><rect width="30" height="30" x="690" y="630" opacity="1" fill="#000000" transform="matrix(1,0,0,1,0,0)"/><rect width="30" height="30" x="300" y="660" opacity="1" fill="#000000" transform="matrix(1,0,0,1,0,0)"/><rect width="30" height="30" x="450" y="660" opacity="1" fill="#000000" transform="matrix(1,0,0,1,0,0)"/><rect width="30" height="30" x="480" y="660" opacity="1" fill="#000000" transform="matrix(1,0,0,1,0,0)"/><rect width="30" height="30" x="510" y="660" opacity="1" fill="#000000" transform="matrix(1,0,0,1,0,0)"/><rect width="30" height="30" x="540" y="660" opacity="1" fill="#000000" transform="matrix(1,0,0,1,0,0)"/><rect width="30" height="30" x="570" y="660" opacity="1" fill="#000000" transform="matrix(1,0,0,1,0,0)"/><rect width="30" height="30" x="600" y="660" opacity="1" fill="#000000" transform="matrix(1,0,0,1,0,0)"/><rect width="30" height="30" x="690" y="660" opacity="1" fill="#000000" transform="matrix(1,0,0,1,0,0)"/><rect width="30" height="30" x="720" y="660" opacity="1" fill="#000000" transform="matrix(1,0,0,1,0,0)"/><rect width="30" height="30" x="750" y="660" opacity="1" fill="#000000" transform="matrix(1,0,0,1,0,0)"/><rect width="30" height="30" x="330" y="690" opacity="1" fill="#000000" transform="matrix(1,0,0,1,0,0)"/><rect width="30" height="30" x="360" y="690" opacity="1" fill="#000000" transform="matrix(1,0,0,1,0,0)"/><rect width="30" height="30" x="420" y="690" opacity="1" fill="#000000" transform="matrix(1,0,0,1,0,0)"/><rect width="30" height="30" x="450" y="690" opacity="1" fill="#000000" transform="matrix(1,0,0,1,0,0)"/><rect width="30" height="30" x="540" y="690" opacity="1" fill="#000000" transform="matrix(1,0,0,1,0,0)"/><rect width="30" height="30" x="570" y="690" opacity="1" fill="#000000" transform="matrix(1,0,0,1,0,0)"/><rect width="30" height="30" x="660" y="690" opacity="1" fill="#000000" transform="matrix(1,0,0,1,0,0)"/><rect width="30" height="30" x="720" y="690" opacity="1" fill="#000000" transform="matrix(1,0,0,1,0,0)"/><rect width="30" height="30" x="270" y="720" opacity="1" fill="#000000" transform="matrix(1,0,0,1,0,0)"/><rect width="30" height="30" x="300" y="720" opacity="1" fill="#000000" transform="matrix(1,0,0,1,0,0)"/><rect width="30" height="30" x="330" y="720" opacity="1" fill="#000000" transform="matrix(1,0,0,1,0,0)"/><rect width="30" height="30" x="360" y="720" opacity="1" fill="#000000" transform="matrix(1,0,0,1,0,0)"/><rect width="30" height="30" x="390" y="720" opacity="1" fill="#000000" transform="matrix(1,0,0,1,0,0)"/><rect width="30" height="30" x="480" y="720" opacity="1" fill="#000000" transform="matrix(1,0,0,1,0,0)"/><rect width="30" height="30" x="540" y="720" opacity="1" fill="#000000" transform="matrix(1,0,0,1,0,0)"/><rect width="30" height="30" x="600" y="720" opacity="1" fill="#000000" transform="matrix(1,0,0,1,0,0)"/><rect width="30" height="30" x="630" y="720" opacity="1" fill="#000000" transform="matrix(1,0,0,1,0,0)"/><rect width="30" height="30" x="660" y="720" opacity="1" fill="#000000" transform="matrix(1,0,0,1,0,0)"/><rect width="30" height="30" x="690" y="720" opacity="1" fill="#000000" transform="matrix(1,0,0,1,0,0)"/><rect width="30" height="30" x="720" y="720" opacity="1" fill="#000000" transform="matrix(1,0,0,1,0,0)"/><rect width="30" height="30" x="270" y="750" opacity="1" fill="#000000" transform="matrix(1,0,0,1,0,0)"/><rect width="30" height="30" x="330" y="750" opacity="1" fill="#000000" transform="matrix(1,0,0,1,0,0)"/><rect width="30" height="30" x="390" y="750" opacity="1" fill="#000000" transform="matrix(1,0,0,1,0,0)"/><rect width="30" height="30" x="420" y="750" opacity="1" fill="#000000" transform="matrix(1,0,0,1,0,0)"/><rect width="30" height="30" x="480" y="750" opacity="1" fill="#000000" transform="matrix(1,0,0,1,0,0)"/><rect width="30" height="30" x="540" y="750" opacity="1" fill="#000000" transform="matrix(1,0,0,1,0,0)"/><rect width="30" height="30" x="690" y="750" opacity="1" fill="#000000" transform="matrix(1,0,0,1,0,0)"/><rect width="30" height="30" x="720" y="750" opacity="1" fill="#000000" transform="matrix(1,0,0,1,0,0)"/><rect width="30" height="30" x="750" y="750" opacity="1" fill="#000000" transform="matrix(1,0,0,1,0,0)"/><svg xmlns="http://www.w3.org/2000/svg" xmlns:xlink="http://www.w3.org/1999/xlink" xmlns:svgjs="http://svgjs.com/svgjs" version="1.1" width="210" height="210" viewBox="0 0 210 210" x="30" y="30"><path d="   M0 0 L210 0 L210 210 L0 210 L0 0 Z                                 M30 30 L30 180 L180 180 L180 30 L30 30 Z" fill="#000000" stroke-width="10"/></svg><svg xmlns="http://www.w3.org/2000/svg" xmlns:xlink="http://www.w3.org/1999/xlink" xmlns:svgjs="http://svgjs.com/svgjs" version="1.1" width="210" height="210" viewBox="0 0 210 210" x="570" y="30"><path d="   M0 0 L210 0 L210 210 L0 210 L0 0 Z                                 M30 30 L30 180 L180 180 L180 30 L30 30 Z" fill="#000000" stroke-width="10"/></svg><svg xmlns="http://www.w3.org/2000/svg" xmlns:xlink="http://www.w3.org/1999/xlink" xmlns:svgjs="http://svgjs.com/svgjs" version="1.1" width="210" height="210" viewBox="0 0 210 210" x="30" y="570"><path d="   M0 0 L210 0 L210 210 L0 210 L0 0 Z                                 M30 30 L30 180 L180 180 L180 30 L30 30 Z" fill="#000000" stroke-width="10"/></svg><svg xmlns="http://www.w3.org/2000/svg" xmlns:xlink="http://www.w3.org/1999/xlink" xmlns:svgjs="http://svgjs.com/svgjs" version="1.1" width="90" height="90" x="90" y="90"><rect width="90" height="90" fill="#000000"/></svg><svg xmlns="http://www.w3.org/2000/svg" xmlns:xlink="http://www.w3.org/1999/xlink" xmlns:svgjs="http://svgjs.com/svgjs" version="1.1" width="90" height="90" x="630" y="90"><rect width="90" height="90" fill="#000000"/></svg><svg xmlns="http://www.w3.org/2000/svg" xmlns:xlink="http://www.w3.org/1999/xlink" xmlns:svgjs="http://svgjs.com/svgjs" version="1.1" width="90" height="90" x="90" y="630"><rect width="90" height="90" fill="#000000"/></svg><rect width="30" height="30" x="270" y="210" opacity="1" fill="#000000" transform="matrix(1,0,0,1,0,0)"/><rect width="30" height="30" x="210" y="270" opacity="1" fill="#000000" transform="matrix(1,0,0,1,0,0)"/><rect width="30" height="30" x="330" y="210" opacity="1" fill="#000000" transform="matrix(1,0,0,1,0,0)"/><rect width="30" height="30" x="210" y="330" opacity="1" fill="#000000" transform="matrix(1,0,0,1,0,0)"/><rect width="30" height="30" x="390" y="210" opacity="1" fill="#000000" transform="matrix(1,0,0,1,0,0)"/><rect width="30" height="30" x="210" y="390" opacity="1" fill="#000000" transform="matrix(1,0,0,1,0,0)"/><rect width="30" height="30" x="450" y="210" opacity="1" fill="#000000" transform="matrix(1,0,0,1,0,0)"/><rect width="30" height="30" x="210" y="450" opacity="1" fill="#000000" transform="matrix(1,0,0,1,0,0)"/><rect width="30" height="30" x="510" y="210" opacity="1" fill="#000000" transform="matrix(1,0,0,1,0,0)"/><rect width="30" height="30" x="210" y="510" opacity="1" fill="#000000" transform="matrix(1,0,0,1,0,0)"/><rect width="30" height="30" x="510" y="510" opacity="1" fill="#000000" transform="matrix(1,0,0,1,0,0)"/><rect width="30" height="30" x="510" y="540" opacity="1" fill="#000000" transform="matrix(1,0,0,1,0,0)"/><rect width="30" height="30" x="510" y="570" opacity="1" fill="#000000" transform="matrix(1,0,0,1,0,0)"/><rect width="30" height="30" x="510" y="600" opacity="1" fill="#000000" transform="matrix(1,0,0,1,0,0)"/><rect width="30" height="30" x="630" y="540" opacity="1" fill="#000000" transform="matrix(1,0,0,1,0,0)"/><rect width="30" height="30" x="630" y="570" opacity="1" fill="#000000" transform="matrix(1,0,0,1,0,0)"/><rect width="30" height="30" x="630" y="600" opacity="1" fill="#000000" transform="matrix(1,0,0,1,0,0)"/><rect width="30" height="30" x="630" y="630" opacity="1" fill="#000000" transform="matrix(1,0,0,1,0,0)"/><rect width="30" height="30" x="540" y="510" opacity="1" fill="#000000" transform="matrix(1,0,0,1,0,0)"/><rect width="30" height="30" x="570" y="510" opacity="1" fill="#000000" transform="matrix(1,0,0,1,0,0)"/><rect width="30" height="30" x="600" y="510" opacity="1" fill="#000000" transform="matrix(1,0,0,1,0,0)"/><rect width="30" height="30" x="630" y="510" opacity="1" fill="#000000" transform="matrix(1,0,0,1,0,0)"/><rect width="30" height="30" x="510" y="630" opacity="1" fill="#000000" transform="matrix(1,0,0,1,0,0)"/><rect width="30" height="30" x="540" y="630" opacity="1" fill="#000000" transform="matrix(1,0,0,1,0,0)"/><rect width="30" height="30" x="570" y="630" opacity="1" fill="#000000" transform="matrix(1,0,0,1,0,0)"/><rect width="30" height="30" x="600" y="630" opacity="1" fill="#000000" transform="matrix(1,0,0,1,0,0)"/><rect width="30" height="30" x="570" y="570" opacity="1" fill="#000000" transform="matrix(1,0,0,1,0,0)"/><svg xmlns="http://www.w3.org/2000/svg" xmlns:xlink="http://www.w3.org/1999/xlink" xmlns:svgjs="http://svgjs.com/svgjs" version="1.1" width="215.947265625" height="60.1171875" viewBox="0 0 273 76" x="566.052734375" y="721.8828125" opacity="1"><svg xmlns="http://www.w3.org/2000/svg" width="273" height="76" viewBox="0 0 273 76" fill="none">
<rect width="273" height="76" fill="white"/>
<path d="M61.3369 47.0653H51.8627C51.1745 47.0653 50.6166 47.6232 50.6166 48.3115V57.7857C50.6166 58.4739 51.1745 59.0318 51.8627 59.0318H61.3369C62.0252 59.0318 62.5831 58.4739 62.5831 57.7857V48.3115C62.5831 47.6232 62.0252 47.0653 61.3369 47.0653Z" fill="#060606"/>
<path opacity="0.91" d="M69.2396 28.4576L29.7698 65.8258L12.5401 48.5961L50.9595 10.4233L69.2396 28.4576Z" fill="url(#paint0_linear_20060_1687)"/>
<path d="M58.3498 50.3079H54.8502C54.3029 50.3079 53.8593 50.7515 53.8593 51.2987V54.7983C53.8593 55.3456 54.3029 55.7892 54.8502 55.7892H58.3498C58.897 55.7892 59.3407 55.3456 59.3407 54.7983V51.2987C59.3407 50.7515 58.897 50.3079 58.3498 50.3079Z" fill="white"/>
<path d="M67.9628 10H52.0327C51.1549 10 50.4434 10.7116 50.4434 11.5894V27.5194C50.4434 28.3972 51.1549 29.1088 52.0327 29.1088H67.9628C68.8406 29.1088 69.5522 28.3972 69.5522 27.5194V11.5894C69.5522 10.7116 68.8406 10 67.9628 10Z" fill="#060606"/>
<path d="M65.1533 12.8096H54.8434C53.9656 12.8096 53.254 13.5212 53.254 14.399V24.7088C53.254 25.5866 53.9656 26.2982 54.8434 26.2982H65.1533C66.0311 26.2982 66.7426 25.5866 66.7426 24.7088V14.399C66.7426 13.5212 66.0311 12.8096 65.1533 12.8096Z" fill="#F5F5F5"/>
<path d="M62.7638 15.2545H57.4282C56.5505 15.2545 55.8389 15.9661 55.8389 16.8439V22.1795C55.8389 23.0573 56.5505 23.7689 57.4282 23.7689H62.7638C63.6416 23.7689 64.3532 23.0573 64.3532 22.1795V16.8439C64.3532 15.9661 63.6416 15.2545 62.7638 15.2545Z" fill="#060606"/>
<path d="M29.5194 10H13.5894C12.7116 10 12 10.7116 12 11.5894V27.5194C12 28.3972 12.7116 29.1088 13.5894 29.1088H29.5194C30.3972 29.1088 31.1088 28.3972 31.1088 27.5194V11.5894C31.1088 10.7116 30.3972 10 29.5194 10Z" fill="#060606"/>
<path d="M26.7092 12.8097H16.3994C15.5216 12.8097 14.81 13.5213 14.81 14.3991V24.7089C14.81 25.5867 15.5216 26.2983 16.3994 26.2983H26.7092C27.587 26.2983 28.2986 25.5867 28.2986 24.7089V14.3991C28.2986 13.5213 27.587 12.8097 26.7092 12.8097Z" fill="#F5F5F5"/>
<path d="M24.3198 15.2545H18.9842C18.1064 15.2545 17.3948 15.9661 17.3948 16.8439V22.1795C17.3948 23.0573 18.1064 23.7689 18.9842 23.7689H24.3198C25.1976 23.7689 25.9092 23.0573 25.9092 22.1795V16.8439C25.9092 15.9661 25.1976 15.2545 24.3198 15.2545Z" fill="#060606"/>
<path d="M29.5196 46.8912H13.5896C12.7118 46.8912 12.0002 47.6028 12.0002 48.4806V64.4106C12.0002 65.2884 12.7118 66 13.5896 66H29.5196C30.3974 66 31.109 65.2884 31.109 64.4106V48.4806C31.109 47.6028 30.3974 46.8912 29.5196 46.8912Z" fill="#060606"/>
<path d="M26.7094 49.701H16.3996C15.5218 49.701 14.8102 50.4126 14.8102 51.2904V61.6003C14.8102 62.4781 15.5218 63.1897 16.3996 63.1897H26.7094C27.5872 63.1897 28.2988 62.4781 28.2988 61.6003V51.2904C28.2988 50.4126 27.5872 49.701 26.7094 49.701Z" fill="#F5F5F5"/>
<path d="M24.32 52.1458H18.9844C18.1066 52.1458 17.395 52.8573 17.395 53.7351V59.0707C17.395 59.9485 18.1066 60.6601 18.9844 60.6601H24.32C25.1978 60.6601 25.9094 59.9485 25.9094 59.0707V53.7351C25.9094 52.8573 25.1978 52.1458 24.32 52.1458Z" fill="#060606"/>
<path d="M120.547 20.0728V24.1111H109.632V54.1636H105.592V24.1111H94.6779V20.0728H120.546H120.547Z" fill="black"/>
<path d="M110.756 55.2887H104.466V25.2363H93.5519V18.9463H121.672V25.2363H110.756V55.2887ZM106.716 53.0371H108.504V22.9846H119.42V21.1966H95.8022V22.9846H106.716V53.0371Z" fill="black"/>
<path d="M155.188 54.2353L151.924 56.4458L149.713 53.9341C147.201 55.3412 144.088 56.0934 140.974 56.0934C133.842 56.0934 126.76 52.3258 126.76 44.892V30.3255C126.76 22.8916 133.842 19.1754 140.974 19.1754C148.105 19.1754 155.139 22.8916 155.139 30.3255V44.892C155.139 47.4037 154.184 49.7142 152.829 51.4224L155.189 54.2339L155.188 54.2353ZM150.116 47.9074C150.719 47.0526 150.97 46.0979 150.97 44.8934V30.3268C150.97 25.4047 145.947 23.2954 140.925 23.2954C135.953 23.344 130.979 25.5046 130.979 30.3268V44.8934C130.93 49.6143 135.952 51.9262 140.925 51.9262C143.335 51.9262 145.195 51.5737 147.203 50.5704C145.596 48.4111 145.293 48.2585 143.786 46.2505L147.203 44.0913L150.116 47.9088V47.9074Z" fill="black"/>
<path d="M151.725 58L149.438 55.4009C146.941 56.6095 143.972 57.2687 140.972 57.2687C133.325 57.2687 125.583 53.0182 125.583 44.8919V30.3254C125.583 21.8564 133.561 18 140.972 18C148.384 18 156.313 21.8564 156.313 30.3254V44.8919C156.313 47.1747 155.611 49.4408 154.319 51.371L156.926 54.4767L151.725 57.9986V58ZM140.974 20.3507C134.693 20.3507 127.935 23.4716 127.935 30.3254V44.8919C127.935 51.779 134.693 54.9166 140.974 54.9166C143.925 54.9166 146.825 54.2019 149.139 52.9072L149.969 52.4423L152.122 54.8902L153.45 53.991L151.31 51.4418L151.907 50.6897C153.232 49.0189 153.962 46.9596 153.962 44.8906V30.324C153.962 23.4702 147.229 20.3493 140.972 20.3493L140.974 20.3507ZM140.924 53.1001C137.216 53.1001 133.821 51.9067 131.844 49.9084C130.488 48.5374 129.782 46.7986 129.803 44.8794V30.3254C129.803 24.7316 135.383 22.1728 140.913 22.1186C146.51 22.1186 152.146 24.6553 152.146 30.3254V44.8919C152.146 46.3781 151.806 47.5507 151.076 48.5846L150.152 49.8931L146.92 45.6579L145.504 46.553C145.807 46.9346 146.058 47.2371 146.309 47.5382C146.8 48.1294 147.293 48.7219 148.145 49.8668L148.983 50.9922L147.727 51.6194C145.651 52.6574 143.617 53.1001 140.924 53.1001ZM140.924 24.4708C136.884 24.511 132.153 26.068 132.153 30.3254V44.8919C132.14 46.2005 132.598 47.3273 133.515 48.2543C135.061 49.8168 137.829 50.7494 140.924 50.7494C142.668 50.7494 144.039 50.5509 145.352 50.0846C145.028 49.6753 144.765 49.3589 144.502 49.0425C144.045 48.4916 143.588 47.9435 142.846 46.954L142.082 45.9355L147.485 42.519L149.766 45.5081C149.785 45.3138 149.795 45.1098 149.795 44.8906V30.324C149.795 26.0028 145.017 24.4694 140.925 24.4694L140.924 24.4708Z" fill="black"/>
<path d="M191.174 54.1637H186.222L175.21 40.2673H169.97V54.1637H165.93V20.1194H178.913C185.452 20.1194 190.405 23.0525 190.548 30.3136C190.548 37.0924 186.028 39.9299 180.211 40.2181L191.173 54.1624L191.174 54.1637ZM178.96 36.5172C183.577 36.5172 186.51 34.9789 186.51 30.3149C186.51 25.6509 183.384 24.0634 178.96 24.1604H169.97V36.5185H178.96V36.5172Z" fill="black"/>
<path d="M193.49 55.2888H185.678L174.667 41.3923H171.096V55.2888H164.806V18.9941H178.914C186.881 18.9941 191.532 23.1122 191.674 30.2909C191.674 36.2926 188.309 40.149 182.355 41.124L193.49 55.2874V55.2888ZM186.766 53.0371H188.858L177.981 39.2018L180.156 39.0942C184.383 38.8843 189.424 37.1906 189.424 30.3135C189.274 22.8213 183.627 21.2445 178.914 21.2445H167.056V53.0371H168.844V39.1407H175.755L186.766 53.0371ZM178.96 37.6423H168.844V23.0338H178.96C181.982 22.9794 184.268 23.6595 185.732 25.0915C186.996 26.3269 187.636 28.0844 187.636 30.3148C187.636 35.1781 184.717 37.6436 178.961 37.6436L178.96 37.6423ZM171.095 35.392H178.96C183.523 35.392 185.384 33.9201 185.384 30.3148C185.384 28.6902 184.983 27.5092 184.158 26.7015C183.145 25.7092 181.394 25.2257 178.985 25.2855H171.095V35.392Z" fill="black"/>
<path d="M212.131 19.317C217.099 19.317 222.117 21.5576 224.308 26.2325L220.655 28.0841C219.047 25.016 215.491 23.4079 211.984 23.4079C207.552 23.4079 203.071 25.6 203.071 30.0811V43.7196C203.071 48.2007 207.552 50.3929 211.984 50.3929C215.54 50.3929 219.095 48.8346 220.655 45.7664L224.308 47.47C222.068 52.1463 216.953 54.4837 211.984 54.4837C205.506 54.4837 198.98 50.88 198.98 43.7196V30.0811C198.98 22.9705 205.555 19.317 212.131 19.317Z" fill="black"/>
<path d="M211.985 55.6236C204.956 55.6236 197.84 51.534 197.84 43.7197V30.0812C197.84 22.2668 205.028 18.1772 212.131 18.1772C218.089 18.1772 223.152 21.0785 225.341 25.7494L225.811 26.7506L220.169 29.6102L219.646 28.6144C218.353 26.145 215.346 24.5491 211.987 24.5491C208.242 24.5491 204.213 26.281 204.213 30.0812V43.7197C204.213 47.5212 208.242 49.2518 211.987 49.2518C215.453 49.2518 218.387 47.7177 219.641 45.2483L220.14 44.266L225.837 46.9237L225.339 47.9626C223.109 52.616 217.869 55.6236 211.988 55.6236H211.985ZM212.131 20.4582C206.346 20.4582 200.121 23.4698 200.121 30.0825V43.721C200.121 50.3337 206.272 53.3453 211.985 53.3453C216.543 53.3453 220.625 51.2757 222.72 47.9882L221.106 47.2359C219.263 49.9125 215.874 51.5354 211.985 51.5354C207.144 51.5354 201.932 49.0903 201.932 43.7223V30.0839C201.932 24.7159 207.144 22.2708 211.985 22.2708C215.748 22.2708 219.19 23.9381 221.075 26.5958L222.754 25.7454C220.38 21.8698 215.808 20.4595 212.132 20.4595L212.131 20.4582Z" fill="black"/>
<path d="M232.559 30.3485C232.559 23.0041 239.299 19.2321 246.04 19.2321C251.12 19.2321 256.301 21.6461 258.615 26.4754L254.792 28.2865C253.233 25.1173 249.511 23.4572 245.94 23.4572C241.363 23.4572 236.734 25.7214 236.734 30.3485V44.6841C236.734 49.4123 241.413 51.6766 246.04 51.6766C250.667 51.6766 255.396 49.4123 255.396 44.6841V41.113H244.883V36.9378H259.571V44.6841C259.571 52.2295 252.831 55.9516 246.04 55.9516C239.248 55.9516 232.559 52.2295 232.559 44.6841V30.3485Z" fill="black"/>
<path d="M246.038 57.0063C239.037 57.0063 231.503 53.1506 231.503 44.6841V30.3485C231.503 22.3575 238.815 18.1772 246.038 18.1772C252.065 18.1772 257.247 21.1817 259.565 26.0197L260.023 26.9758L254.303 29.6857L253.843 28.7533C252.576 26.1782 249.473 24.5131 245.937 24.5131C242.012 24.5131 237.788 26.3392 237.788 30.3497V44.6853C237.788 48.7644 242.064 50.623 246.038 50.623C250.013 50.623 254.339 48.7657 254.339 44.6853V42.1689H243.825V35.883H260.623V44.6853C260.623 53.1519 253.062 57.0075 246.037 57.0075L246.038 57.0063ZM246.038 20.2867C240.053 20.2867 233.614 23.4347 233.614 30.3485V44.6841C233.614 51.7002 240.054 54.8968 246.038 54.8968C252.022 54.8968 258.514 51.7014 258.514 44.6841V37.9924H245.936V40.057H256.449V44.6828C256.449 50.2123 251.052 52.73 246.038 52.73C241.024 52.73 235.677 50.2111 235.677 44.6828V30.3472C235.677 24.8876 240.996 22.4012 245.937 22.4012C249.86 22.4012 253.384 24.1436 255.218 26.9159L257.157 25.9972C254.63 21.8095 249.847 20.288 246.037 20.288L246.038 20.2867Z" fill="black"/>
<defs>
<linearGradient id="paint0_linear_20060_1687" x1="21.5814" y1="55.3848" x2="57.5887" y2="22.2967" gradientUnits="userSpaceOnUse">
<stop stop-color="white" stop-opacity="0"/>
<stop offset="1" stop-color="#FA1F31"/>
</linearGradient>
</defs>
</svg></svg></svg>